<svg version="1.2" baseProfile="tiny" viewBox="0 0 42.479 42.46" xmlns:xlink="http://www.w3.org/1999/xlink" xmlns="http://www.w3.org/2000/svg">
<path style="fill:#ffffff;" d="M42.273,40.852L35.3149,26.943C37.7061,25.5388,39.6728,23.4579,40.9098,20.9952C41.931,19.0,42.4701,16.7441,42.4701,14.4699C42.4701,12.2238,41.9421,9.987,40.9451,8.0029C38.4762,3.066,33.5159,0.0,28.0,0.0C22.8061,0.0,18.1109,2.717,15.521,7.152L1.4468,0.1061C1.1401,-0.0488,0.7689,-0.0331,0.4749,0.149C0.1801,0.332,0.0,0.653,0.0,0.9999L0.0,27.9998C0.0,28.3471,0.1801,28.6681,0.4749,28.8511C0.6351,28.9501,0.8169,29.0002,1.0,29.0002C1.1529,29.0002,1.3071,28.9649,1.4468,28.894L15.5511,21.8329C16.7898,23.9241,18.5489,25.6841,20.6261,26.9111L13.5648,41.0121C13.4102,41.3221,13.4259,41.6902,13.609,41.9849C13.7908,42.28,14.1128,42.46,14.4599,42.46L41.4599,42.46C41.468,42.46,41.4748,42.46,41.4799,42.46C42.033,42.46,42.4799,42.012,42.4799,41.4601C42.479,41.2312,42.403,41.021,42.273,40.852M1.9999,26.3808L1.9999,2.6189L14.631,8.9421C14.5822,9.0601,14.5482,9.1828,14.5019,9.3021C14.431,9.4881,14.3651,9.6741,14.3018,9.8622C14.1969,10.176,14.103,10.4931,14.0189,10.8141C13.9701,11.0001,13.9199,11.1848,13.8792,11.3729C13.8031,11.7211,13.7449,12.0718,13.694,12.4238C13.671,12.5881,13.6379,12.7499,13.6209,12.9151C13.564,13.4318,13.53,13.9498,13.53,14.4699C13.53,14.9939,13.5648,15.5162,13.6222,16.0371C13.6409,16.207,13.674,16.3738,13.6982,16.5441C13.7492,16.894,13.8061,17.2422,13.883,17.5869C13.9259,17.7818,13.9781,17.9742,14.0291,18.1669C14.1128,18.485,14.2058,18.7992,14.3112,19.11C14.3762,19.3032,14.445,19.4938,14.518,19.684C14.5639,19.805,14.5992,19.929,14.6489,20.0479L1.9999,26.3808M16.854,20.0611C15.9878,18.3402,15.5312,16.4061,15.5312,14.4699C15.5312,13.9901,15.5592,13.5099,15.6149,13.0339C15.7262,12.0811,15.947,11.1419,16.272,10.2422C16.4339,9.793,16.6229,9.3531,16.8349,8.9268L16.8349,8.9268C16.8349,8.9268,16.8361,8.9259,16.8361,8.9259C18.9571,4.6532,23.2339,1.9999,28.0,1.9999C32.7539,1.9999,37.0281,4.643,39.1559,8.8992C40.0148,10.6069,40.4689,12.5342,40.4689,14.4699C40.4689,16.4282,40.005,18.3699,39.1249,20.0908C37.9299,22.4728,35.947,24.4421,33.5418,25.6348C31.8372,26.4891,29.9201,26.94,28.0,26.94C26.0328,26.94,24.1489,26.4921,22.3962,25.6051C20.0221,24.423,18.0548,22.4541,16.854,20.0611M16.0792,40.4601L22.4098,27.8151C22.5279,27.8648,22.6511,27.8992,22.77,27.9459C22.9718,28.0249,23.1748,28.0971,23.3792,28.1671C23.6502,28.258,23.922,28.3391,24.1969,28.4138C24.4479,28.483,24.6981,28.5501,24.9522,28.604C25.1658,28.649,25.3812,28.6822,25.5961,28.717C25.902,28.7679,26.2061,28.8231,26.5158,28.8541C26.5829,28.8609,26.6509,28.8601,26.7172,28.866C27.142,28.9029,27.568,28.9399,27.9992,28.9399C28.342,28.9399,28.6839,28.9051,29.0251,28.88C29.1601,28.8711,29.2948,28.8698,29.4282,28.8571C29.723,28.8278,30.0131,28.7781,30.3049,28.731C30.5399,28.6932,30.7752,28.6571,31.0071,28.6078C31.2488,28.556,31.488,28.4949,31.728,28.4308C32.0101,28.3561,32.2891,28.2741,32.5661,28.182C32.773,28.1132,32.9781,28.041,33.1812,27.9629C33.295,27.9191,33.4131,27.8869,33.5261,27.8402L39.8402,40.4601L16.0792,40.4601L16.0792,40.4601Z"/>
</svg>