<svg version="1.2" baseProfile="tiny" viewBox="0 0 56.0 46.042" xmlns:xlink="http://www.w3.org/1999/xlink" xmlns="http://www.w3.org/2000/svg">
<path style="fill:#ffffff;" d="M50.7282,44.3352L31.71,25.3139C32.1238,24.6449,32.3758,23.864,32.3758,23.0201C32.3758,20.6079,30.413,18.6452,28.0011,18.6452C27.1572,18.6452,26.376,18.8961,25.7062,19.3119L6.6881,0.2928C6.2972,-0.0981,5.665,-0.0981,5.2741,0.2928C4.8832,0.6842,4.8832,1.3159,5.2741,1.7068L24.2922,20.7258C23.8762,21.3948,23.6258,22.177,23.6258,23.021C23.6258,25.4341,25.5892,27.3982,28.0011,27.3982C28.845,27.3982,29.6262,27.1459,30.296,26.7301L49.3142,45.7501C49.509,45.9449,49.765,46.0429,50.0209,46.0429C50.2768,46.0429,50.5333,45.9449,50.7282,45.7501C51.1179,45.3578,51.1179,44.7261,50.7282,44.3352Z"/>
</svg>