<svg version="1.2" baseProfile="tiny" viewBox="0 0 56.0 46.042" xmlns:xlink="http://www.w3.org/1999/xlink" xmlns="http://www.w3.org/2000/svg">
<path style="fill:#ffffff;" d="M28.9918,43.2901L29.0018,27.2652C29.7679,27.0851,30.4982,26.7108,31.0951,26.1141C32.8009,24.4078,32.8009,21.6328,31.0951,19.9261C30.4982,19.3298,29.769,18.955,29.0002,18.775L29.0007,2.6368C29.0007,2.0848,28.5527,1.7699,28.0,1.7699C27.4467,1.7699,27.0021,2.0848,27.0021,2.6368L27.001,18.775C26.2338,18.9541,25.5041,19.3298,24.9071,19.9261C23.2008,21.6328,23.2002,24.4092,24.906,26.115C25.503,26.7122,26.2332,27.086,27.001,27.2652L26.9601,43.4029C27.0452,44.1842,27.725,44.2712,28.0011,44.2712C28.5527,44.2712,28.9918,43.843,28.9918,43.2901Z"/>
</svg>