<svg version="1.2" baseProfile="tiny" viewBox="0 0 56.0 46.042" xmlns:xlink="http://www.w3.org/1999/xlink" xmlns="http://www.w3.org/2000/svg">
<path style="fill:#ffffff;" d="M1.9998,2.7708L1.9998,43.2721C1.9998,43.8251,1.5529,44.2721,1.0002,44.2721C0.4469,44.2721,0.0,43.8251,0.0,43.2721L0.0,2.7708C0.0,2.2192,0.4469,1.7708,1.0002,1.7708C1.5529,1.7708,1.9998,2.2178,1.9998,2.7708M54.9998,1.7708C54.4471,1.7708,54.0002,2.2192,54.0002,2.7708L54.0002,43.2721C54.0002,43.8251,54.4471,44.2721,54.9998,44.2721C55.5531,44.2721,56.0,43.8251,56.0,43.2721L56.0,2.7708C56.0,2.2178,55.5531,1.7708,54.9998,1.7708Z"/>
</svg>